<?xml version="1.0" standalone="no"?>
<!DOCTYPE svg PUBLIC "-//W3C//DTD SVG 20010904//EN"
 "http://www.w3.org/TR/2001/REC-SVG-20010904/DTD/svg10.dtd">
<svg version="1.0" xmlns="http://www.w3.org/2000/svg"
 width="946.000000pt" height="946.000000pt" viewBox="0 0 946.000000 946.000000"
 preserveAspectRatio="xMidYMid meet">
<metadata>
Created by potrace 1.11, written by Peter Selinger 2001-2013
</metadata>
<g transform="translate(0.000000,946.000000) scale(0.100000,-0.100000)"
fill="#000000" stroke="none">
<path d="M4518 8776 c-1 -2 -42 -6 -89 -10 -47 -4 -95 -8 -105 -10 -10 -2 -46
-7 -79 -10 -33 -4 -67 -9 -75 -11 -18 -5 -61 -13 -110 -21 -19 -3 -43 -7 -52
-10 -9 -3 -25 -6 -35 -8 -10 -2 -47 -12 -83 -21 -36 -9 -72 -18 -80 -20 -42
-9 -230 -73 -340 -117 -305 -120 -591 -287 -865 -505 l-107 -84 -100 100 c-55
56 -108 101 -118 101 -10 0 -29 -9 -44 -21 -45 -36 -36 -60 69 -166 52 -53 95
-98 95 -101 0 -3 -34 -39 -75 -80 l-76 -75 -98 96 c-113 111 -146 123 -178 63
-18 -33 2 -65 99 -163 l91 -91 -80 -99 c-290 -361 -502 -773 -627 -1221 -14
-48 -27 -98 -30 -112 -37 -178 -55 -274 -61 -320 -3 -30 -8 -66 -10 -80 -26
-194 -26 -602 1 -800 74 -557 243 -1017 538 -1465 225 -341 494 -625 816 -862
99 -72 247 -173 255 -173 3 0 35 -18 72 -41 95 -59 330 -171 464 -222 334
-128 688 -205 1032 -223 67 -4 124 -9 127 -11 3 -3 5 -284 5 -626 1 -342 5
-632 9 -645 4 -13 17 -27 29 -31 24 -9 67 3 79 22 4 7 8 298 8 649 l0 636 195
0 c145 0 209 -4 248 -15 90 -27 176 -97 215 -177 32 -65 149 -309 302 -631 26
-55 78 -163 115 -240 37 -77 78 -163 91 -191 24 -53 38 -64 79 -64 25 0 55 33
55 60 0 9 -14 45 -31 81 -39 80 -116 242 -180 377 -63 131 -130 273 -209 437
-34 72 -73 155 -87 185 -35 76 -94 153 -153 199 l-48 38 146 37 c305 75 612
195 868 339 147 83 404 262 524 365 l35 30 101 -99 c107 -105 134 -118 168
-80 38 42 31 59 -74 165 l-99 101 78 78 78 77 95 -95 c79 -78 102 -95 126 -95
38 0 62 23 62 59 0 22 -21 49 -99 127 l-98 98 77 96 c227 280 425 626 540 945
17 50 36 99 40 110 13 29 57 182 70 240 7 28 13 57 15 65 21 84 44 202 50 260
3 25 10 72 15 105 28 179 30 584 5 790 -100 798 -430 1476 -989 2030 -375 372
-812 643 -1306 808 -96 33 -300 90 -360 101 -14 3 -61 12 -105 20 -81 16 -107
20 -205 30 -30 4 -71 9 -90 12 -38 5 -526 14 -532 10z m286 -3312 c1268 -1269
2306 -2310 2306 -2314 0 -10 -139 -150 -149 -150 -3 0 -1045 1039 -2315 2309
l-2308 2308 77 77 c43 42 79 76 80 76 1 0 1040 -1038 2309 -2306z m2056 -2556
c0 -7 -196 -163 -270 -214 -143 -100 -423 -255 -575 -319 -253 -106 -610 -205
-830 -230 -33 -4 -69 -9 -80 -11 -18 -3 -121 -10 -262 -18 l-53 -3 0 700 c0
638 -1 702 -17 719 -22 24 -65 23 -89 -3 -18 -20 -19 -47 -19 -708 0 -377 -4
-691 -8 -697 -4 -8 -32 -10 -79 -8 -77 4 -269 22 -303 28 -11 2 -40 7 -65 11
-25 4 -56 9 -70 12 -488 81 -998 311 -1425 640 -222 172 -502 463 -645 673
-14 19 -30 41 -37 48 -7 7 -13 17 -13 22 0 5 -6 15 -13 22 -12 12 -30 41 -105
167 -50 84 -174 337 -209 427 -99 250 -188 585 -208 789 -2 28 -7 68 -10 90
-11 83 -15 195 -15 350 2 222 9 328 37 490 2 17 6 41 8 55 9 67 59 278 91 385
123 412 370 868 634 1168 l24 28 2303 -2303 c1267 -1267 2303 -2306 2303
-2310z"/>
</g>
</svg>
